<svg xmlns="http://www.w3.org/2000/svg" width="272.108" height="120"><path d="M100.868 54.766c-.973.351-2.844.823-4.764.823-2.494 0-4.439-.648-5.886-2.07-1.472-1.397-2.295-3.691-2.295-6.361.025-5.637 3.716-8.73 8.605-8.73 1.796 0 3.193.375 3.891.699l-.623 2.419c-.774-.349-1.746-.624-3.243-.624-3.168 0-5.538 1.971-5.538 6.136 0 4.066 2.171 6.112 5.138 6.112.924 0 1.572-.125 1.897-.275V48.53h-2.619v-2.345h5.437v8.581zM117.027 46.834c0 5.837-3.043 8.83-7.183 8.83-4.34 0-6.935-3.617-6.935-8.581 0-5.113 2.844-8.73 7.185-8.73 4.489.001 6.933 3.742 6.933 8.481m-11.025.224c0 3.493 1.422 6.188 3.991 6.188 2.595 0 3.942-2.844 3.942-6.311 0-3.118-1.247-6.161-3.942-6.161-2.643-.001-3.991 2.818-3.991 6.284M119.492 38.828c.948-.2 2.545-.349 4.116-.349 2.07 0 3.492.274 4.589 1.098.974.673 1.572 1.746 1.572 3.117 0 1.547-.922 2.968-2.694 3.642v.075c1.821.475 3.293 1.92 3.293 4.141 0 1.471-.599 2.619-1.497 3.441-1.122 1.047-3.019 1.571-5.911 1.571-1.547 0-2.719-.1-3.468-.199V38.828zm2.919 6.685h1.347c1.896 0 3.068-1.023 3.068-2.495 0-1.521-1.022-2.345-2.894-2.345-.773 0-1.221.051-1.521.125v4.715zm0 7.732c.349.075.798.075 1.397.075 1.87 0 3.466-.799 3.466-2.844 0-1.97-1.62-2.819-3.566-2.819h-1.297v5.588zM132.884 38.603h2.943v16.812h-2.943zM147.723 47.907h-5.638v5.039h6.311v2.469h-9.253V38.604h8.904v2.47h-5.962v4.414h5.638zM150.888 38.828c1.098-.2 2.619-.349 4.216-.349 2.22 0 3.816.374 4.889 1.322.922.798 1.396 1.945 1.396 3.367 0 2.12-1.296 3.617-2.918 4.24v.05c1.197.449 1.871 1.597 2.27 3.343.473 2.094.922 3.99 1.222 4.614h-3.018c-.249-.499-.623-1.946-1.047-4.016-.449-2.17-1.197-2.893-2.82-2.918h-1.272v6.934h-2.918V38.828zm2.918 7.458h1.498c1.944 0 3.142-1.147 3.142-2.818 0-1.795-1.097-2.718-3.018-2.743-.798 0-1.347.074-1.622.149v5.412zM164.079 55.415V38.603h3.192l3.892 7.209a53.125 53.125 0 0 1 2.594 5.537h.049a90.229 90.229 0 0 1-.274-7.208v-5.538h2.694v16.812h-2.968l-3.917-7.333c-.947-1.746-1.945-3.792-2.668-5.662l-.075.024c.125 2.096.174 4.366.174 7.359v5.611h-2.693zM192.784 46.834c0 5.837-3.043 8.83-7.182 8.83-4.341 0-6.935-3.617-6.935-8.581 0-5.113 2.843-8.73 7.184-8.73 4.489.001 6.933 3.742 6.933 8.481m-11.024.224c0 3.493 1.421 6.188 3.991 6.188 2.594 0 3.941-2.844 3.941-6.311 0-3.118-1.247-6.161-3.941-6.161-2.644-.001-3.991 2.818-3.991 6.284M199.988 38.828c1.197-.225 2.719-.349 4.315-.349 2.818 0 4.739.598 6.111 1.771 1.572 1.297 2.519 3.367 2.519 6.386 0 3.191-.997 5.437-2.494 6.808-1.496 1.423-3.865 2.12-6.809 2.12-1.522 0-2.745-.1-3.642-.224V38.828zm2.943 14.317c.375.075.897.075 1.396.075 3.343 0 5.513-1.995 5.513-6.535.026-3.742-1.82-5.887-5.213-5.887-.748 0-1.321.05-1.696.15v12.197zM223.954 47.907h-5.638v5.039h6.311v2.469h-9.254V38.604h8.904v2.47h-5.961v4.414h5.638zM92.742 72.831h-5.028v-4.444h15.434v4.444h-5.115v15.26h-5.291zM110.518 68.387v11.197c0 2.981 1.022 4.648 3.099 4.648 2.104 0 3.128-1.52 3.128-4.648V68.387h5.291v10.875c0 6.081-3.04 9.15-8.566 9.15-5.379 0-8.243-2.952-8.243-9.267V68.387h5.291zM140.045 87.593c-.731.38-2.602.819-4.94.819-7.368 0-10.613-4.59-10.613-9.852 0-6.957 5.087-10.495 10.962-10.495 2.252 0 4.093.438 4.912.878l-1.023 4.149c-.848-.351-2.075-.701-3.654-.701-3.011 0-5.642 1.783-5.642 5.817 0 3.596 2.134 5.818 5.759 5.818 1.257 0 2.689-.234 3.508-.556l.731 4.123zM147.852 68.387v11.197c0 2.981 1.022 4.648 3.099 4.648 2.104 0 3.128-1.52 3.128-4.648V68.387h5.291v10.875c0 6.081-3.04 9.15-8.566 9.15-5.379 0-8.243-2.952-8.243-9.267V68.387h5.291zM179.338 81.045c-.088-2.25-.117-4.881-.117-7.951h-.087a149.983 149.983 0 0 1-2.076 7.718l-1.959 6.87h-4.121l-1.638-6.841c-.526-2.134-1.11-5.058-1.578-7.747h-.059c-.117 2.777-.205 5.701-.292 7.951l-.322 7.045h-4.853l1.228-19.703h7.104l1.286 5.291a97.481 97.481 0 0 1 1.549 7.221h.088c.555-2.396 1.199-5.174 1.784-7.25l1.491-5.262h6.927l.995 19.703h-5.116l-.234-7.045zM192.788 83.53l-1.112 4.562h-5.467l5.702-19.704h7.044l5.876 19.704h-5.701l-1.256-4.562h-5.086zm8.097-19.878l-3.508 3.683h-4.21l2.369-3.683h5.349zm-3.742 15.99l-.906-3.537c-.292-1.11-.673-2.747-.994-3.888h-.058c-.293 1.141-.585 2.777-.849 3.888l-.846 3.537h3.653zM207.025 88.09V68.387h6.227l3.127 6.053c1.083 1.958 2.222 4.588 3.099 6.897h.088c-.292-2.601-.408-5.349-.408-8.302v-4.649h4.823V88.09h-5.555l-3.361-6.548c-1.082-2.076-2.368-4.736-3.304-7.103h-.117c.147 2.66.204 5.612.204 8.828v4.823h-4.823z" fill="#2f292b"/><path fill="#00a4cd" d="M30.576 54.836L4.213 49.668 0 60.305zM45.746 74.491l25.021 9.816 5.863-9.747zM62.428 34.013l-9.097-6.875-3.172 31.158zM34.463 52.39L11.735 37.942l-7.847 8.433zM38.99 51.543L22.959 29.724l-10.475 5.101L32.03 47.118zM43.481 52.354l-7.116-26.24-11.349.913 13.573 18.67zM71.557 44.452l-6.048-9.646-14.033 27.845zM51.126 67.208l25.178-9.706-2.157-11.089zM29.155 71.572l-7.501 25.93 10.234 4.929zM55.722 68.808l-6.594 2.54 26.904.067L78 60.346zM61.232 94.438l9.005-7.018-28.788-11.237zM48.715 100.45l10.797-3.213-22.661-21.02zM46.156 102.42L32.564 74.599l2.334 26.918zM10.763 88.955l7.646 8.259 8.652-29.697zM26.57 62.97L3.702 77.019 7.875 87.6zM27.768 58.544L1.415 63.309v11.43zM50.143 27.62l-11.055-3.188 8.285 30.287z"/><path fill="none" stroke="#30c4e6" stroke-width="1.049" stroke-miterlimit="10" d="M271.584 0v120"/></svg>